# xmcd
#
# Track frame offsets:
#	150
#	13225
#	23140
#	35797
#	46507
#	59425
#	72892
#	82790
#	94925
#	107670
#	120855
#	132475
#	145037
#	152592
#	164702
#	176555
#	189505
#	202290
#	211657
#	223805
#	235610
#	247645
#	259945
#	270922
#	281850
#	292395
#	302737
#	313002
#	324717
#
# Disc length: 4448 seconds
#
# Revision: 1
# Processed by: cddbd v1.5.2PL0 Copyright (c) Steve Scherf et al.
# Submitted via: audiograbber 1.83.01
#
DISCID=aa115e1d
DTITLE=Anita Carter - Apalachian Angel CD1
DYEAR=2004
DGENRE=Country
TTITLE0=Somebody's Crying
TTITLE1=Johnnie's Got A Sweetheart
TTITLE2=Someone Else, Not Me
TTITLE3=Freight Train Blues
TTITLE4=Just You And I
TTITLE5=Careless Love
TTITLE6=Down, The Trail Of Archin' Hearts (& Hank Snow)
TTITLE7=Bluebird Island (& Hank Snow)
TTITLE8=Right Way, Wrong Way
TTITLE9=When I Lost You
TTITLE10=(Go Away) I Want To Be Blue
TTITLE11=I'm Crying
TTITLE12=I Cant't Help It (& Hank Williams)
TTITLE13=Keep It A Secret
TTITLE14=Cool, Cold Shoulder
TTITLE15=There'll Be No Teardrops Tonight
TTITLE16=Heartless Romance
TTITLE17=Don Juan
TTITLE18=Faithless Johnny Lee
TTITLE19=Making Believe
TTITLE20=I Dreamed Of A Hillbilly Heaven
TTITLE21=Keep Your Promise, Willie Thomas (& Hank Snow)
TTITLE22=It's You, Only You, That I Love (& Hank Snow)
TTITLE23=That's What Makes The Juke Box Play
TTITLE24=Here We Are Again
TTITLE25=I'm Sorry If That's The Way You Feel
TTITLE26=The Mask On Your Heart
TTITLE27=I Wore Dark Glasses (At Your Wedding)
TTITLE28=False Hearted
EXTD=
EXTT0=
EXTT1=
EXTT2=
EXTT3=
EXTT4=
EXTT5=
EXTT6=
EXTT7=
EXTT8=
EXTT9=
EXTT10=
EXTT11=
EXTT12=
EXTT13=
EXTT14=
EXTT15=
EXTT16=
EXTT17=
EXTT18=
EXTT19=
EXTT20=
EXTT21=
EXTT22=
EXTT23=
EXTT24=
EXTT25=
EXTT26=
EXTT27=
EXTT28=
PLAYORDER=
